<?xml version="1.0" encoding="UTF-8"?>
<svg id="RedLion" xmlns="http://www.w3.org/2000/svg" version="1.1" viewBox="0 0 1000 1100">
  <!-- Generator: Adobe Illustrator 30.1.0, SVG Export Plug-In . SVG Version: 2.1.1 Build 136)  -->
  <defs>
    <style>
      .st0 {
        fill: none;
        stroke: #ff001e;
        stroke-miterlimit: 10;
        stroke-width: 10px;
      }
    </style>
  </defs>
  <g id="CIRCLE">
    <circle class="st0" cx="414.96" cy="362.9" r="14.17"/>
  </g>
  <g id="CIRCLE1" data-name="CIRCLE">
    <circle class="st0" cx="461.93" cy="79.44" r="14.17"/>
  </g>
  <g id="CIRCLE2" data-name="CIRCLE">
    <circle class="st0" cx="393.49" cy="51.09" r="14.17"/>
  </g>
  <g id="CIRCLE3" data-name="CIRCLE">
    <circle class="st0" cx="301.57" cy="79.44" r="14.17"/>
  </g>
  <g id="CIRCLE4" data-name="CIRCLE">
    <circle class="st0" cx="221.4" cy="79.44" r="14.17"/>
  </g>
  <g id="CIRCLE5" data-name="CIRCLE">
    <circle class="st0" cx="443.31" cy="221.17" r="14.17"/>
  </g>
  <g id="CIRCLE6" data-name="CIRCLE">
    <circle class="st0" cx="334.78" cy="192.82" r="14.17"/>
  </g>
  <g id="CIRCLE7" data-name="CIRCLE">
    <circle class="st0" cx="159.84" cy="164.48" r="14.17"/>
  </g>
  <g id="CIRCLE8" data-name="CIRCLE">
    <circle class="st0" cx="131.5" cy="277.86" r="14.17"/>
  </g>
  <g id="CIRCLE9" data-name="CIRCLE">
    <circle class="st0" cx="74.8" cy="334.56" r="14.17"/>
  </g>
  <g id="CIRCLE10" data-name="CIRCLE">
    <circle class="st0" cx="103.15" cy="394.1" r="14.17"/>
  </g>
  <g id="CIRCLE11" data-name="CIRCLE">
    <circle class="st0" cx="46.46" cy="447.94" r="14.17"/>
  </g>
  <g id="CIRCLE12" data-name="CIRCLE">
    <circle class="st0" cx="74.8" cy="532.98" r="14.17"/>
  </g>
  <g id="CIRCLE13" data-name="CIRCLE">
    <circle class="st0" cx="74.8" cy="646.37" r="14.17"/>
  </g>
  <g id="CIRCLE14" data-name="CIRCLE">
    <circle class="st0" cx="103.15" cy="731.41" r="14.17"/>
  </g>
  <g id="CIRCLE15" data-name="CIRCLE">
    <circle class="st0" cx="195.07" cy="703.06" r="14.17"/>
  </g>
  <g id="CIRCLE16" data-name="CIRCLE">
    <circle class="st0" cx="244.88" cy="759.75" r="14.17"/>
  </g>
  <g id="CIRCLE17" data-name="CIRCLE">
    <circle class="st0" cx="159.84" cy="873.14" r="14.17"/>
  </g>
  <g id="CIRCLE18" data-name="CIRCLE">
    <circle class="st0" cx="329.92" cy="844.79" r="14.17"/>
  </g>
  <g id="CIRCLE19" data-name="CIRCLE">
    <circle class="st0" cx="386.61" cy="844.79" r="14.17"/>
  </g>
  <g id="CIRCLE20" data-name="CIRCLE">
    <circle class="st0" cx="244.88" cy="958.18" r="14.17"/>
  </g>
  <g id="CIRCLE21" data-name="CIRCLE">
    <circle class="st0" cx="329.92" cy="1043.22" r="14.17"/>
  </g>
  <g id="CIRCLE22" data-name="CIRCLE">
    <circle class="st0" cx="414.96" cy="1014.87" r="14.17"/>
  </g>
  <g id="CIRCLE23" data-name="CIRCLE">
    <circle class="st0" cx="471.65" cy="1043.22" r="14.17"/>
  </g>
  <g id="CIRCLE24" data-name="CIRCLE">
    <circle class="st0" cx="188.19" cy="589.67" r="14.17"/>
  </g>
  <g id="CIRCLE25" data-name="CIRCLE">
    <circle class="st0" cx="585.04" cy="362.9" r="14.17"/>
  </g>
  <g id="CIRCLE26" data-name="CIRCLE">
    <circle class="st0" cx="538.07" cy="79.44" r="14.17"/>
  </g>
  <g id="CIRCLE27" data-name="CIRCLE">
    <circle class="st0" cx="606.51" cy="51.09" r="14.17"/>
  </g>
  <g id="CIRCLE28" data-name="CIRCLE">
    <circle class="st0" cx="698.43" cy="79.44" r="14.17"/>
  </g>
  <g id="CIRCLE29" data-name="CIRCLE">
    <circle class="st0" cx="778.6" cy="79.44" r="14.17"/>
  </g>
  <g id="CIRCLE30" data-name="CIRCLE">
    <circle class="st0" cx="556.69" cy="221.17" r="14.17"/>
  </g>
  <g id="CIRCLE31" data-name="CIRCLE">
    <circle class="st0" cx="665.22" cy="192.82" r="14.17"/>
  </g>
  <g id="CIRCLE32" data-name="CIRCLE">
    <circle class="st0" cx="840.16" cy="164.48" r="14.17"/>
  </g>
  <g id="CIRCLE33" data-name="CIRCLE">
    <circle class="st0" cx="868.5" cy="277.86" r="14.17"/>
  </g>
  <g id="CIRCLE34" data-name="CIRCLE">
    <circle class="st0" cx="925.2" cy="334.56" r="14.17"/>
  </g>
  <g id="CIRCLE35" data-name="CIRCLE">
    <circle class="st0" cx="896.85" cy="394.1" r="14.17"/>
  </g>
  <g id="CIRCLE36" data-name="CIRCLE">
    <circle class="st0" cx="953.54" cy="447.94" r="14.17"/>
  </g>
  <g id="CIRCLE37" data-name="CIRCLE">
    <circle class="st0" cx="925.2" cy="532.98" r="14.17"/>
  </g>
  <g id="CIRCLE38" data-name="CIRCLE">
    <circle class="st0" cx="925.2" cy="646.37" r="14.17"/>
  </g>
  <g id="CIRCLE39" data-name="CIRCLE">
    <circle class="st0" cx="896.85" cy="731.41" r="14.17"/>
  </g>
  <g id="CIRCLE40" data-name="CIRCLE">
    <circle class="st0" cx="804.93" cy="703.06" r="14.17"/>
  </g>
  <g id="CIRCLE41" data-name="CIRCLE">
    <circle class="st0" cx="755.12" cy="759.75" r="14.17"/>
  </g>
  <g id="CIRCLE42" data-name="CIRCLE">
    <circle class="st0" cx="840.16" cy="873.14" r="14.17"/>
  </g>
  <g id="CIRCLE43" data-name="CIRCLE">
    <circle class="st0" cx="670.08" cy="844.79" r="14.17"/>
  </g>
  <g id="CIRCLE44" data-name="CIRCLE">
    <circle class="st0" cx="613.39" cy="844.79" r="14.17"/>
  </g>
  <g id="CIRCLE45" data-name="CIRCLE">
    <circle class="st0" cx="755.12" cy="958.18" r="14.17"/>
  </g>
  <g id="CIRCLE46" data-name="CIRCLE">
    <circle class="st0" cx="670.08" cy="1043.22" r="14.17"/>
  </g>
  <g id="CIRCLE47" data-name="CIRCLE">
    <circle class="st0" cx="585.04" cy="1014.87" r="14.17"/>
  </g>
  <g id="CIRCLE48" data-name="CIRCLE">
    <circle class="st0" cx="528.35" cy="1043.22" r="14.17"/>
  </g>
  <g id="CIRCLE49" data-name="CIRCLE">
    <circle class="st0" cx="811.81" cy="589.67" r="14.17"/>
  </g>
  <g id="LWPOLYLINE">
    <polyline class="st0" points="783.46 120.36 783.46 136.13 681.82 136.13 613.39 204.57"/>
  </g>
  <g id="LWPOLYLINE1" data-name="LWPOLYLINE">
    <line class="st0" x1="780.62" y1="317.95" x2="740.53" y2="277.86"/>
  </g>
  <g id="LWPOLYLINE2" data-name="LWPOLYLINE">
    <polyline class="st0" points="528.35 745.58 528.35 770.66 500 799.01 471.65 770.66 471.65 745.58"/>
  </g>
  <g id="LWPOLYLINE3" data-name="LWPOLYLINE">
    <polyline class="st0" points="556.69 755.48 556.69 782.4 520.04 819.05"/>
  </g>
  <g id="LWPOLYLINE4" data-name="LWPOLYLINE">
    <line class="st0" x1="636.03" y1="703.06" x2="555.86" y2="703.06"/>
  </g>
  <g id="LWPOLYLINE5" data-name="LWPOLYLINE">
    <line class="st0" x1="641.73" y1="674.71" x2="584.2" y2="674.71"/>
  </g>
  <g id="LWPOLYLINE6" data-name="LWPOLYLINE">
    <line class="st0" x1="641.73" y1="646.37" x2="612.55" y2="646.37"/>
  </g>
  <g id="LWPOLYLINE7" data-name="LWPOLYLINE">
    <polyline class="st0" points="670.08 428.49 670.08 468.58 634.02 504.63 585.04 504.63"/>
  </g>
  <g id="LWPOLYLINE8" data-name="LWPOLYLINE">
    <polyline class="st0" points="698.43 520.41 698.43 560.49 670.08 588.84 670.08 628.93"/>
  </g>
  <g id="LWPOLYLINE9" data-name="LWPOLYLINE">
    <polyline class="st0" points="585.04 901.49 585.04 754.06 641.73 697.36 641.73 577.1 726.77 492.06"/>
  </g>
  <g id="LWPOLYLINE10" data-name="LWPOLYLINE">
    <line class="st0" x1="641.73" y1="579.95" x2="594.77" y2="532.98"/>
  </g>
  <g id="LWPOLYLINE11" data-name="LWPOLYLINE">
    <polyline class="st0" points="585.04 783.83 546.79 745.58 453.21 745.58 414.96 783.83"/>
  </g>
  <g id="LWPOLYLINE12" data-name="LWPOLYLINE">
    <polyline class="st0" points="585.04 763.78 552.66 731.41 447.34 731.41 414.96 763.78"/>
  </g>
  <g id="LWPOLYLINE13" data-name="LWPOLYLINE">
    <polyline class="st0" points="528.35 690.48 528.35 650.4 560.72 618.02"/>
  </g>
  <g id="LWPOLYLINE14" data-name="LWPOLYLINE">
    <polygon class="st0" points="399.19 618.02 600.81 618.02 500 718.83 399.19 618.02"/>
  </g>
  <g id="LWPOLYLINE15" data-name="LWPOLYLINE">
    <polyline class="st0" points="556.69 535 528.35 506.65 528.35 449.96 540.09 438.22 520.04 418.17"/>
  </g>
  <g id="LWPOLYLINE16" data-name="LWPOLYLINE">
    <line class="st0" x1="620.26" y1="398.13" x2="595.06" y2="372.92"/>
  </g>
  <g id="LWPOLYLINE17" data-name="LWPOLYLINE">
    <polyline class="st0" points="660.35 358.04 680.4 378.08 667.23 391.25 627.14 391.25 598.8 419.6 678.97 419.6"/>
  </g>
  <g id="LWPOLYLINE18" data-name="LWPOLYLINE">
    <polyline class="st0" points="598.8 419.6 556.69 461.7 556.69 501.79 582.19 476.29 622.28 476.29 720.48 378.08"/>
  </g>
  <g id="LWPOLYLINE19" data-name="LWPOLYLINE">
    <polyline class="st0" points="556.69 501.79 556.69 575.08 571.28 589.67"/>
  </g>
  <g id="LWPOLYLINE20" data-name="LWPOLYLINE">
    <line class="st0" x1="868.5" y1="686.46" x2="755.12" y2="573.07"/>
  </g>
  <g id="LWPOLYLINE21" data-name="LWPOLYLINE">
    <polyline class="st0" points="868.5 606.28 795.21 532.98 755.12 532.98 755.12 613.16 840.16 698.2 840.16 858.97"/>
  </g>
  <g id="LWPOLYLINE22" data-name="LWPOLYLINE">
    <polyline class="st0" points="471.65 850.84 471.65 890.92 500 919.27 528.35 890.92 528.35 850.84"/>
  </g>
  <g id="LWPOLYLINE23" data-name="LWPOLYLINE">
    <polyline class="st0" points="479.96 939.31 443.31 902.67 443.31 822.49 500 879.18 556.69 822.49 556.69 902.67 520.04 939.31"/>
  </g>
  <g id="LWPOLYLINE24" data-name="LWPOLYLINE">
    <polyline class="st0" points="613.39 858.97 613.39 886.06 528.35 971.1 528.35 1029.04"/>
  </g>
  <g id="LWPOLYLINE25" data-name="LWPOLYLINE">
    <polyline class="st0" points="620.26 718.83 670.08 768.65 670.08 830.62"/>
  </g>
  <g id="LWPOLYLINE26" data-name="LWPOLYLINE">
    <polyline class="st0" points="585.04 1000.7 585.04 954.49 641.73 897.8 641.73 780.39 600.22 738.87"/>
  </g>
  <g id="LWPOLYLINE27" data-name="LWPOLYLINE">
    <polyline class="st0" points="640.31 698.79 698.43 756.9 698.43 881.2 585.04 994.58"/>
  </g>
  <g id="LWPOLYLINE28" data-name="LWPOLYLINE">
    <polyline class="st0" points="726.77 852.85 755.12 824.5 755.12 788.1"/>
  </g>
  <g id="LWPOLYLINE29" data-name="LWPOLYLINE">
    <polyline class="st0" points="641.73 660.12 726.77 745.16 726.77 892.94 783.46 836.25 783.46 759.75"/>
  </g>
  <g id="LWPOLYLINE30" data-name="LWPOLYLINE">
    <polyline class="st0" points="726.77 892.94 670.08 949.63 670.08 1029.04"/>
  </g>
  <g id="LWPOLYLINE31" data-name="LWPOLYLINE">
    <line class="st0" x1="585.04" y1="834.23" x2="556.69" y2="862.58"/>
  </g>
  <g id="LWPOLYLINE32" data-name="LWPOLYLINE">
    <line class="st0" x1="726.77" y1="572.23" x2="641.73" y2="657.27"/>
  </g>
  <g id="LWPOLYLINE33" data-name="LWPOLYLINE">
    <polyline class="st0" points="868.5 263.69 868.5 245.49 815.84 192.82 705.3 192.82 620.26 277.86 726.77 384.37 726.77 624.9 794.91 693.04"/>
  </g>
  <g id="LWPOLYLINE34" data-name="LWPOLYLINE">
    <polyline class="st0" points="660.35 638.65 755.12 733.42 755.12 745.58"/>
  </g>
  <g id="LWPOLYLINE35" data-name="LWPOLYLINE">
    <polyline class="st0" points="755.12 944.01 755.12 904.68 811.81 847.99 811.81 750.03 680.4 618.61"/>
  </g>
  <g id="LWPOLYLINE36" data-name="LWPOLYLINE">
    <line class="st0" x1="726.77" y1="504.63" x2="755.12" y2="532.98"/>
  </g>
  <g id="LWPOLYLINE37" data-name="LWPOLYLINE">
    <polyline class="st0" points="821.83 599.7 868.5 646.37 868.5 791.29"/>
  </g>
  <g id="LWPOLYLINE38" data-name="LWPOLYLINE">
    <polyline class="st0" points="896.85 717.23 896.85 594.54 806.95 504.63 766.86 504.63 726.77 464.55"/>
  </g>
  <g id="LWPOLYLINE39" data-name="LWPOLYLINE">
    <line class="st0" x1="830.43" y1="447.94" x2="750.25" y2="447.94"/>
  </g>
  <g id="LWPOLYLINE40" data-name="LWPOLYLINE">
    <polyline class="st0" points="896.85 554.45 896.85 514.36 802.08 419.6 762 419.6 755.12 412.72 755.12 372.63 717.04 334.56 676.96 334.56"/>
  </g>
  <g id="LWPOLYLINE41" data-name="LWPOLYLINE">
    <polyline class="st0" points="925.2 632.19 925.2 582.8 818.69 476.29 778.6 476.29 726.77 424.46"/>
  </g>
  <g id="LWPOLYLINE42" data-name="LWPOLYLINE">
    <line class="st0" x1="886.83" y1="384.08" x2="840.16" y2="337.41"/>
  </g>
  <g id="LWPOLYLINE43" data-name="LWPOLYLINE">
    <polyline class="st0" points="939.37 447.94 910.61 447.94 820.7 358.04"/>
  </g>
  <g id="LWPOLYLINE44" data-name="LWPOLYLINE">
    <polyline class="st0" points="911.02 334.56 877.4 334.56 840.16 297.32"/>
  </g>
  <g id="LWPOLYLINE45" data-name="LWPOLYLINE">
    <polyline class="st0" points="780.62 358.04 811.81 326.84 811.81 268.97 792.36 249.52 728.79 249.52 700.44 277.86 540.09 277.86"/>
  </g>
  <g id="LWPOLYLINE46" data-name="LWPOLYLINE">
    <polyline class="st0" points="660.35 277.86 717.04 221.17 804.1 221.17 840.16 257.23 840.16 338.59 800.66 378.08"/>
  </g>
  <g id="LWPOLYLINE47" data-name="LWPOLYLINE">
    <line class="st0" x1="648.61" y1="306.21" x2="728.79" y2="306.21"/>
  </g>
  <g id="LWPOLYLINE48" data-name="LWPOLYLINE">
    <polyline class="st0" points="700.44 277.86 925.2 502.62 925.2 518.81"/>
  </g>
  <g id="LWPOLYLINE49" data-name="LWPOLYLINE">
    <polyline class="st0" points="825.98 164.48 693.56 164.48 675.24 182.8"/>
  </g>
  <g id="LWPOLYLINE50" data-name="LWPOLYLINE">
    <line class="st0" x1="735.66" y1="192.82" x2="707.32" y2="164.48"/>
  </g>
  <g id="LWPOLYLINE51" data-name="LWPOLYLINE">
    <polyline class="st0" points="231.42 89.46 249.75 107.78 370.01 107.78 414.96 152.74 414.96 232.91 500 317.95 585.04 232.91 585.04 152.74 629.99 107.78 750.25 107.78 768.58 89.46"/>
  </g>
  <g id="LWPOLYLINE52" data-name="LWPOLYLINE">
    <polyline class="st0" points="684.25 79.44 618.25 79.44 556.69 140.99 556.69 207"/>
  </g>
  <g id="LWPOLYLINE53" data-name="LWPOLYLINE">
    <polyline class="st0" points="528.35 289.6 528.35 129.25 596.49 61.11"/>
  </g>
  <g id="LWPOLYLINE54" data-name="LWPOLYLINE">
    <polyline class="st0" points="471.95 89.46 500 117.51 528.05 89.46"/>
  </g>
  <g id="LWPOLYLINE55" data-name="LWPOLYLINE">
    <polyline class="st0" points="216.54 120.36 216.54 136.13 318.18 136.13 386.61 204.57"/>
  </g>
  <g id="LWPOLYLINE56" data-name="LWPOLYLINE">
    <line class="st0" x1="219.38" y1="317.95" x2="259.47" y2="277.86"/>
  </g>
  <g id="LWPOLYLINE57" data-name="LWPOLYLINE">
    <polyline class="st0" points="443.31 755.48 443.31 782.4 479.96 819.05"/>
  </g>
  <g id="LWPOLYLINE58" data-name="LWPOLYLINE">
    <line class="st0" x1="363.97" y1="703.06" x2="444.14" y2="703.06"/>
  </g>
  <g id="LWPOLYLINE59" data-name="LWPOLYLINE">
    <line class="st0" x1="358.27" y1="674.71" x2="415.8" y2="674.71"/>
  </g>
  <g id="LWPOLYLINE60" data-name="LWPOLYLINE">
    <line class="st0" x1="358.27" y1="646.37" x2="387.45" y2="646.37"/>
  </g>
  <g id="LWPOLYLINE61" data-name="LWPOLYLINE">
    <polyline class="st0" points="329.92 428.49 329.92 468.58 365.98 504.63 414.96 504.63"/>
  </g>
  <g id="LWPOLYLINE62" data-name="LWPOLYLINE">
    <polyline class="st0" points="301.57 520.41 301.57 560.49 329.92 588.84 329.92 628.93"/>
  </g>
  <g id="LWPOLYLINE63" data-name="LWPOLYLINE">
    <polyline class="st0" points="414.96 901.49 414.96 754.06 358.27 697.36 358.27 577.1 273.23 492.06"/>
  </g>
  <g id="LWPOLYLINE64" data-name="LWPOLYLINE">
    <line class="st0" x1="358.27" y1="579.95" x2="405.23" y2="532.98"/>
  </g>
  <g id="LWPOLYLINE65" data-name="LWPOLYLINE">
    <polyline class="st0" points="471.65 690.48 471.65 650.4 439.28 618.02"/>
  </g>
  <g id="LWPOLYLINE66" data-name="LWPOLYLINE">
    <polyline class="st0" points="443.31 535 471.65 506.65 471.65 449.96 459.91 438.22 479.96 418.17"/>
  </g>
  <g id="LWPOLYLINE67" data-name="LWPOLYLINE">
    <line class="st0" x1="379.74" y1="398.13" x2="404.94" y2="372.92"/>
  </g>
  <g id="LWPOLYLINE68" data-name="LWPOLYLINE">
    <polyline class="st0" points="339.65 358.04 319.6 378.08 332.77 391.25 372.86 391.25 401.2 419.6 321.03 419.6"/>
  </g>
  <g id="LWPOLYLINE69" data-name="LWPOLYLINE">
    <polyline class="st0" points="401.2 419.6 443.31 461.7 443.31 501.79 417.81 476.29 377.72 476.29 279.52 378.08"/>
  </g>
  <g id="LWPOLYLINE70" data-name="LWPOLYLINE">
    <polyline class="st0" points="443.31 501.79 443.31 575.08 428.72 589.67"/>
  </g>
  <g id="LWPOLYLINE71" data-name="LWPOLYLINE">
    <line class="st0" x1="131.5" y1="686.46" x2="244.88" y2="573.07"/>
  </g>
  <g id="LWPOLYLINE72" data-name="LWPOLYLINE">
    <polyline class="st0" points="131.5 606.28 204.79 532.98 244.88 532.98 244.88 613.16 159.84 698.2 159.84 858.97"/>
  </g>
  <g id="LWPOLYLINE73" data-name="LWPOLYLINE">
    <polyline class="st0" points="386.61 858.97 386.61 886.06 471.65 971.1 471.65 1029.04"/>
  </g>
  <g id="LWPOLYLINE74" data-name="LWPOLYLINE">
    <polyline class="st0" points="379.74 718.83 329.92 768.65 329.92 830.62"/>
  </g>
  <g id="LWPOLYLINE75" data-name="LWPOLYLINE">
    <polyline class="st0" points="414.96 1000.7 414.96 954.49 358.27 897.8 358.27 780.39 399.78 738.87"/>
  </g>
  <g id="LWPOLYLINE76" data-name="LWPOLYLINE">
    <polyline class="st0" points="359.69 698.79 301.57 756.9 301.57 881.2 414.96 994.58"/>
  </g>
  <g id="LWPOLYLINE77" data-name="LWPOLYLINE">
    <polyline class="st0" points="273.23 852.85 244.88 824.5 244.88 788.1"/>
  </g>
  <g id="LWPOLYLINE78" data-name="LWPOLYLINE">
    <polyline class="st0" points="358.27 660.12 273.23 745.16 273.23 892.94 216.54 836.25 216.54 759.75"/>
  </g>
  <g id="LWPOLYLINE79" data-name="LWPOLYLINE">
    <polyline class="st0" points="273.23 892.94 329.92 949.63 329.92 1029.04"/>
  </g>
  <g id="LWPOLYLINE80" data-name="LWPOLYLINE">
    <line class="st0" x1="414.96" y1="834.23" x2="443.31" y2="862.58"/>
  </g>
  <g id="LWPOLYLINE81" data-name="LWPOLYLINE">
    <line class="st0" x1="273.23" y1="572.23" x2="358.27" y2="657.27"/>
  </g>
  <g id="LWPOLYLINE82" data-name="LWPOLYLINE">
    <polyline class="st0" points="339.65 638.65 244.88 733.42 244.88 745.58"/>
  </g>
  <g id="LWPOLYLINE83" data-name="LWPOLYLINE">
    <polyline class="st0" points="244.88 944.01 244.88 904.68 188.19 847.99 188.19 750.03 319.6 618.61"/>
  </g>
  <g id="LWPOLYLINE84" data-name="LWPOLYLINE">
    <polyline class="st0" points="205.09 693.04 273.23 624.9 273.23 384.37 379.74 277.86 294.7 192.82 184.16 192.82 131.5 245.49 131.5 263.69"/>
  </g>
  <g id="LWPOLYLINE85" data-name="LWPOLYLINE">
    <line class="st0" x1="273.23" y1="504.63" x2="244.88" y2="532.98"/>
  </g>
  <g id="LWPOLYLINE86" data-name="LWPOLYLINE">
    <polyline class="st0" points="178.17 599.7 131.5 646.37 131.5 791.29"/>
  </g>
  <g id="LWPOLYLINE87" data-name="LWPOLYLINE">
    <polyline class="st0" points="103.15 717.23 103.15 594.54 193.05 504.63 233.14 504.63 273.23 464.55"/>
  </g>
  <g id="LWPOLYLINE88" data-name="LWPOLYLINE">
    <line class="st0" x1="169.57" y1="447.94" x2="249.75" y2="447.94"/>
  </g>
  <g id="LWPOLYLINE89" data-name="LWPOLYLINE">
    <polyline class="st0" points="103.15 554.45 103.15 514.36 197.92 419.6 238 419.6 244.88 412.72 244.88 372.63 282.96 334.56 323.04 334.56"/>
  </g>
  <g id="LWPOLYLINE90" data-name="LWPOLYLINE">
    <polyline class="st0" points="74.8 632.19 74.8 582.8 181.31 476.29 221.4 476.29 273.23 424.46"/>
  </g>
  <g id="LWPOLYLINE91" data-name="LWPOLYLINE">
    <line class="st0" x1="113.17" y1="384.08" x2="159.84" y2="337.41"/>
  </g>
  <g id="LWPOLYLINE92" data-name="LWPOLYLINE">
    <polyline class="st0" points="60.63 447.94 89.39 447.94 179.3 358.04"/>
  </g>
  <g id="LWPOLYLINE93" data-name="LWPOLYLINE">
    <polyline class="st0" points="88.98 334.56 122.6 334.56 159.84 297.32"/>
  </g>
  <g id="LWPOLYLINE94" data-name="LWPOLYLINE">
    <polyline class="st0" points="219.38 358.04 188.19 326.84 188.19 268.97 207.64 249.52 271.21 249.52 299.56 277.86 459.91 277.86"/>
  </g>
  <g id="LWPOLYLINE95" data-name="LWPOLYLINE">
    <polyline class="st0" points="339.65 277.86 282.96 221.17 195.9 221.17 159.84 257.23 159.84 338.59 199.34 378.08"/>
  </g>
  <g id="LWPOLYLINE96" data-name="LWPOLYLINE">
    <line class="st0" x1="351.39" y1="306.21" x2="271.21" y2="306.21"/>
  </g>
  <g id="LWPOLYLINE97" data-name="LWPOLYLINE">
    <polyline class="st0" points="299.56 277.86 74.8 502.62 74.8 518.81"/>
  </g>
  <g id="LWPOLYLINE98" data-name="LWPOLYLINE">
    <polyline class="st0" points="174.02 164.48 306.44 164.48 324.76 182.8"/>
  </g>
  <g id="LWPOLYLINE99" data-name="LWPOLYLINE">
    <line class="st0" x1="264.34" y1="192.82" x2="292.68" y2="164.48"/>
  </g>
  <g id="LWPOLYLINE100" data-name="LWPOLYLINE">
    <polyline class="st0" points="670.08 107.78 613.39 164.48 613.39 244.65 556.69 301.35 556.69 341.43 528.35 369.78 528.35 409.87 500 438.22 471.65 409.87 471.65 369.78 443.31 341.43 443.31 301.35 386.61 244.65 386.61 164.48 329.92 107.78"/>
  </g>
  <g id="LWPOLYLINE101" data-name="LWPOLYLINE">
    <polyline class="st0" points="315.75 79.44 381.75 79.44 443.31 140.99 443.31 207"/>
  </g>
  <g id="LWPOLYLINE102" data-name="LWPOLYLINE">
    <polyline class="st0" points="471.65 289.6 471.65 129.25 403.51 61.11"/>
  </g>
  <g id="LWPOLYLINE103" data-name="LWPOLYLINE">
    <line class="st0" x1="500" y1="117.51" x2="500" y2="317.95"/>
  </g>
</svg>